<svg width="189" height="61" viewBox="0 0 189 61" fill="none" xmlns="http://www.w3.org/2000/svg">
<path d="M82.8127 9.74267L85.2483 2.43567H103.11L105.546 9.74267M103.11 17.8616C102.464 17.8616 101.844 17.6049 101.388 17.1482C100.931 16.6914 100.674 16.0719 100.674 15.4259C100.674 14.7799 100.931 14.1604 101.388 13.7036C101.844 13.2468 102.464 12.9902 103.11 12.9902C103.756 12.9902 104.375 13.2468 104.832 13.7036C105.289 14.1604 105.546 14.7799 105.546 15.4259C105.546 16.0719 105.289 16.6914 104.832 17.1482C104.375 17.6049 103.756 17.8616 103.11 17.8616ZM85.2483 17.8616C84.6024 17.8616 83.9828 17.6049 83.5261 17.1482C83.0693 16.6914 82.8127 16.0719 82.8127 15.4259C82.8127 14.7799 83.0693 14.1604 83.5261 13.7036C83.9828 13.2468 84.6024 12.9902 85.2483 12.9902C85.8943 12.9902 86.5138 13.2468 86.9706 13.7036C87.4274 14.1604 87.684 14.7799 87.684 15.4259C87.684 16.0719 87.4274 16.6914 86.9706 17.1482C86.5138 17.6049 85.8943 17.8616 85.2483 17.8616ZM105.416 1.62378C105.091 0.681987 104.182 0 103.11 0H85.2483C84.1766 0 83.2673 0.681987 82.9426 1.62378L79.5651 11.3664V24.3567C79.5651 24.7873 79.7362 25.2003 80.0407 25.5049C80.3452 25.8094 80.7582 25.9805 81.1889 25.9805H82.8127C83.2433 25.9805 83.6563 25.8094 83.9609 25.5049C84.2654 25.2003 84.4364 24.7873 84.4364 24.3567V22.7329H103.922V24.3567C103.922 24.7873 104.093 25.2003 104.397 25.5049C104.702 25.8094 105.115 25.9805 105.546 25.9805H107.169C107.6 25.9805 108.013 25.8094 108.318 25.5049C108.622 25.2003 108.793 24.7873 108.793 24.3567V11.3664L105.416 1.62378Z" fill="white"/>
<path d="M47.2527 48.2573C47.2527 46.8973 47.5661 45.6773 48.1927 44.5973C48.8327 43.5173 49.6927 42.6773 50.7727 42.0773C51.8661 41.464 53.0594 41.1573 54.3527 41.1573C55.8327 41.1573 57.1461 41.524 58.2927 42.2573C59.4527 42.9773 60.2927 44.004 60.8127 45.3373H58.0727C57.7127 44.604 57.2127 44.0573 56.5727 43.6973C55.9327 43.3373 55.1927 43.1573 54.3527 43.1573C53.4327 43.1573 52.6127 43.364 51.8927 43.7773C51.1727 44.1906 50.6061 44.784 50.1927 45.5573C49.7927 46.3306 49.5927 47.2306 49.5927 48.2573C49.5927 49.284 49.7927 50.184 50.1927 50.9573C50.6061 51.7306 51.1727 52.3306 51.8927 52.7573C52.6127 53.1706 53.4327 53.3773 54.3527 53.3773C55.1927 53.3773 55.9327 53.1973 56.5727 52.8373C57.2127 52.4773 57.7127 51.9306 58.0727 51.1973H60.8127C60.2927 52.5306 59.4527 53.5573 58.2927 54.2773C57.1461 54.9973 55.8327 55.3573 54.3527 55.3573C53.0461 55.3573 51.8527 55.0573 50.7727 54.4573C49.6927 53.844 48.8327 52.9973 48.1927 51.9173C47.5661 50.8373 47.2527 49.6173 47.2527 48.2573ZM61.5215 49.6773C61.5215 48.5706 61.7482 47.5906 62.2015 46.7373C62.6682 45.884 63.2948 45.224 64.0815 44.7573C64.8815 44.2773 65.7615 44.0373 66.7215 44.0373C67.5882 44.0373 68.3415 44.2106 68.9815 44.5573C69.6348 44.8906 70.1548 45.3106 70.5415 45.8173V44.2173H72.8415V55.2373H70.5415V53.5973C70.1548 54.1173 69.6282 54.5506 68.9615 54.8973C68.2948 55.244 67.5348 55.4173 66.6815 55.4173C65.7348 55.4173 64.8682 55.1773 64.0815 54.6973C63.2948 54.204 62.6682 53.524 62.2015 52.6573C61.7482 51.7773 61.5215 50.784 61.5215 49.6773ZM70.5415 49.7173C70.5415 48.9573 70.3815 48.2973 70.0615 47.7373C69.7548 47.1773 69.3482 46.7506 68.8415 46.4573C68.3348 46.164 67.7882 46.0173 67.2015 46.0173C66.6148 46.0173 66.0682 46.164 65.5615 46.4573C65.0548 46.7373 64.6415 47.1573 64.3215 47.7173C64.0148 48.264 63.8615 48.9173 63.8615 49.6773C63.8615 50.4373 64.0148 51.104 64.3215 51.6773C64.6415 52.2506 65.0548 52.6906 65.5615 52.9973C66.0815 53.2906 66.6282 53.4373 67.2015 53.4373C67.7882 53.4373 68.3348 53.2906 68.8415 52.9973C69.3482 52.704 69.7548 52.2773 70.0615 51.7173C70.3815 51.144 70.5415 50.4773 70.5415 49.7173ZM76.9162 45.8173C77.2495 45.2573 77.6895 44.824 78.2362 44.5173C78.7962 44.1973 79.4562 44.0373 80.2162 44.0373V46.3973H79.6362C78.7428 46.3973 78.0628 46.624 77.5962 47.0773C77.1428 47.5306 76.9162 48.3173 76.9162 49.4373V55.2373H74.6362V44.2173H76.9162V45.8173ZM92.3273 55.2373L89.1273 49.6773H87.3873V55.2373H85.1073V41.3373H89.9073C90.9739 41.3373 91.8739 41.524 92.6073 41.8973C93.3539 42.2706 93.9073 42.7706 94.2673 43.3973C94.6406 44.024 94.8273 44.724 94.8273 45.4973C94.8273 46.404 94.5606 47.2306 94.0273 47.9773C93.5073 48.7106 92.7006 49.2106 91.6073 49.4773L95.0473 55.2373H92.3273ZM87.3873 47.8573H89.9073C90.7606 47.8573 91.4006 47.644 91.8273 47.2173C92.2673 46.7906 92.4873 46.2173 92.4873 45.4973C92.4873 44.7773 92.2739 44.2173 91.8473 43.8173C91.4206 43.404 90.7739 43.1973 89.9073 43.1973H87.3873V47.8573ZM106.644 49.4573C106.644 49.8706 106.617 50.244 106.564 50.5773H98.144C98.2107 51.4573 98.5373 52.164 99.124 52.6973C99.7107 53.2306 100.431 53.4973 101.284 53.4973C102.511 53.4973 103.377 52.984 103.884 51.9573H106.344C106.011 52.9706 105.404 53.804 104.524 54.4573C103.657 55.0973 102.577 55.4173 101.284 55.4173C100.231 55.4173 99.284 55.184 98.444 54.7173C97.6173 54.2373 96.964 53.5706 96.484 52.7173C96.0173 51.8506 95.784 50.8506 95.784 49.7173C95.784 48.584 96.0107 47.5906 96.464 46.7373C96.9307 45.8706 97.5773 45.204 98.404 44.7373C99.244 44.2706 100.204 44.0373 101.284 44.0373C102.324 44.0373 103.251 44.264 104.064 44.7173C104.877 45.1706 105.511 45.8106 105.964 46.6373C106.417 47.4506 106.644 48.3906 106.644 49.4573ZM104.264 48.7373C104.251 47.8973 103.951 47.224 103.364 46.7173C102.777 46.2106 102.051 45.9573 101.184 45.9573C100.397 45.9573 99.724 46.2106 99.164 46.7173C98.604 47.2106 98.2707 47.884 98.164 48.7373H104.264ZM113.248 44.0373C114.114 44.0373 114.888 44.2173 115.568 44.5773C116.261 44.9373 116.801 45.4706 117.188 46.1773C117.574 46.884 117.768 47.7373 117.768 48.7373V55.2373H115.508V49.0773C115.508 48.0906 115.261 47.3373 114.768 46.8173C114.274 46.284 113.601 46.0173 112.748 46.0173C111.894 46.0173 111.214 46.284 110.708 46.8173C110.214 47.3373 109.968 48.0906 109.968 49.0773V55.2373H107.688V44.2173H109.968V45.4773C110.341 45.024 110.814 44.6706 111.388 44.4173C111.974 44.164 112.594 44.0373 113.248 44.0373ZM122.136 46.0773V52.1773C122.136 52.5906 122.229 52.8906 122.416 53.0773C122.616 53.2506 122.949 53.3373 123.416 53.3373H124.816V55.2373H123.016C121.989 55.2373 121.203 54.9973 120.656 54.5173C120.109 54.0373 119.836 53.2573 119.836 52.1773V46.0773H118.536V44.2173H119.836V41.4773H122.136V44.2173H124.816V46.0773H122.136ZM124.957 49.6773C124.957 48.5706 125.184 47.5906 125.637 46.7373C126.104 45.884 126.731 45.224 127.517 44.7573C128.317 44.2773 129.197 44.0373 130.157 44.0373C131.024 44.0373 131.777 44.2106 132.417 44.5573C133.071 44.8906 133.591 45.3106 133.977 45.8173V44.2173H136.277V55.2373H133.977V53.5973C133.591 54.1173 133.064 54.5506 132.397 54.8973C131.731 55.244 130.971 55.4173 130.117 55.4173C129.171 55.4173 128.304 55.1773 127.517 54.6973C126.731 54.204 126.104 53.524 125.637 52.6573C125.184 51.7773 124.957 50.784 124.957 49.6773ZM133.977 49.7173C133.977 48.9573 133.817 48.2973 133.497 47.7373C133.191 47.1773 132.784 46.7506 132.277 46.4573C131.771 46.164 131.224 46.0173 130.637 46.0173C130.051 46.0173 129.504 46.164 128.997 46.4573C128.491 46.7373 128.077 47.1573 127.757 47.7173C127.451 48.264 127.297 48.9173 127.297 49.6773C127.297 50.4373 127.451 51.104 127.757 51.6773C128.077 52.2506 128.491 52.6906 128.997 52.9973C129.517 53.2906 130.064 53.4373 130.637 53.4373C131.224 53.4373 131.771 53.2906 132.277 52.9973C132.784 52.704 133.191 52.2773 133.497 51.7173C133.817 51.144 133.977 50.4773 133.977 49.7173ZM140.352 40.4373V55.2373H138.072V40.4373H140.352Z" fill="white"/>
</svg>
