<svg width="172" height="40" viewBox="0 0 172 40" fill="none" xmlns="http://www.w3.org/2000/svg">
<circle cx="20" cy="20" r="19.5" fill="white" stroke="white"/>
<path d="M30 20.0251C30 14.4912 25.52 10 20 10C14.48 10 10 14.4912 10 20.0251C10 24.8772 13.44 28.9173 18 29.8496V23.0326H16V20.0251H18V17.5188C18 15.584 19.57 14.01 21.5 14.01H24V17.0175H22C21.45 17.0175 21 17.4687 21 18.0201V20.0251H24V23.0326H21V30C26.05 29.4987 30 25.2281 30 20.0251Z" fill="#008080"/>
<circle cx="64" cy="20" r="19.5" fill="white" stroke="white"/>
<path d="M68.46 11.5C69.5822 11.5 70.5582 11.943 71.252 12.6982L71.4434 12.9072L71.7207 12.8496C72.2158 12.7475 72.6994 12.6067 73.167 12.4297C72.894 12.7586 72.5684 13.0411 72.2021 13.2617L72.5234 14.1855C72.8303 14.1463 73.1335 14.0909 73.4326 14.0225C73.1383 14.314 72.8247 14.5836 72.4893 14.8232L72.2666 14.9824L72.2803 15.2559C72.2895 15.4307 72.29 15.5982 72.29 15.79C72.29 21.2446 68.1268 27.5 60.5801 27.5C58.9662 27.5 57.4271 27.1701 56.0264 26.5762C57.7121 26.3948 59.3202 25.7425 60.6602 24.6816L61.7549 23.8154L60.3594 23.79C59.5694 23.7756 58.8036 23.514 58.1699 23.042C57.7514 22.7302 57.4059 22.3358 57.1494 21.8877C57.5747 21.8893 57.9994 21.8351 58.4121 21.7217L58.3779 20.75C56.8901 20.4539 55.7154 19.2737 55.416 17.7793C55.8447 17.9166 56.3051 18 56.79 18H58.4844L57.0615 17.0801C56.0437 16.422 55.38 15.2601 55.3799 13.9404C55.3799 13.507 55.4537 13.088 55.5889 12.6992C57.7695 15.0602 60.8478 16.5962 64.2744 16.7695L64.9326 16.8027L64.7881 16.1602C64.7258 15.8843 64.6904 15.591 64.6904 15.29C64.6904 13.1947 66.3876 11.5 68.46 11.5Z" fill="#008080" stroke="white"/>
<circle cx="108" cy="20" r="19.5" fill="white" stroke="white"/>
<path d="M108.593 30.2579L108.582 30.2599L108.511 30.2949L108.491 30.2989L108.477 30.2949L108.406 30.2599C108.395 30.2566 108.387 30.2583 108.382 30.2649L108.378 30.2749L108.361 30.7029L108.366 30.7229L108.376 30.7359L108.48 30.8099L108.495 30.8139L108.507 30.8099L108.611 30.7359L108.623 30.7199L108.627 30.7029L108.61 30.2759C108.607 30.2653 108.602 30.2593 108.593 30.2579ZM108.858 30.1449L108.845 30.1469L108.66 30.2399L108.65 30.2499L108.647 30.2609L108.665 30.6909L108.67 30.7029L108.678 30.7099L108.879 30.8029C108.892 30.8063 108.901 30.8036 108.908 30.7949L108.912 30.7809L108.878 30.1669C108.875 30.1549 108.868 30.1476 108.858 30.1449ZM108.143 30.1469C108.139 30.1443 108.133 30.1434 108.128 30.1445C108.123 30.1456 108.119 30.1487 108.116 30.1529L108.11 30.1669L108.076 30.7809C108.077 30.7929 108.082 30.8009 108.093 30.8049L108.108 30.8029L108.309 30.7099L108.319 30.7019L108.323 30.6909L108.34 30.2609L108.337 30.2489L108.327 30.2389L108.143 30.1469Z" fill="#008080"/>
<path d="M112 10C113.326 10 114.598 10.5268 115.536 11.4645C116.473 12.4021 117 13.6739 117 15V23C117 24.3261 116.473 25.5979 115.536 26.5355C114.598 27.4732 113.326 28 112 28H104C102.674 28 101.402 27.4732 100.464 26.5355C99.5268 25.5979 99 24.3261 99 23V15C99 13.6739 99.5268 12.4021 100.464 11.4645C101.402 10.5268 102.674 10 104 10H112ZM108 15C106.939 15 105.922 15.4214 105.172 16.1716C104.421 16.9217 104 17.9391 104 19C104 20.0609 104.421 21.0783 105.172 21.8284C105.922 22.5786 106.939 23 108 23C109.061 23 110.078 22.5786 110.828 21.8284C111.579 21.0783 112 20.0609 112 19C112 17.9391 111.579 16.9217 110.828 16.1716C110.078 15.4214 109.061 15 108 15ZM108 17C108.53 17 109.039 17.2107 109.414 17.5858C109.789 17.9609 110 18.4696 110 19C110 19.5304 109.789 20.0391 109.414 20.4142C109.039 20.7893 108.53 21 108 21C107.47 21 106.961 20.7893 106.586 20.4142C106.211 20.0391 106 19.5304 106 19C106 18.4696 106.211 17.9609 106.586 17.5858C106.961 17.2107 107.47 17 108 17ZM112.5 13.5C112.235 13.5 111.98 13.6054 111.793 13.7929C111.605 13.9804 111.5 14.2348 111.5 14.5C111.5 14.7652 111.605 15.0196 111.793 15.2071C111.98 15.3946 112.235 15.5 112.5 15.5C112.765 15.5 113.02 15.3946 113.207 15.2071C113.395 15.0196 113.5 14.7652 113.5 14.5C113.5 14.2348 113.395 13.9804 113.207 13.7929C113.02 13.6054 112.765 13.5 112.5 13.5Z" fill="#008080"/>
<circle cx="152" cy="20" r="19.5" fill="white" stroke="white"/>
<path fill-rule="evenodd" clip-rule="evenodd" d="M152.593 30.4948L152.582 30.4966L152.511 30.5284L152.491 30.5321L152.477 30.5284L152.406 30.4966C152.396 30.4936 152.388 30.4951 152.382 30.5012L152.378 30.5103L152.361 30.8991L152.366 30.9173L152.376 30.9291L152.48 30.9963L152.495 30.9999L152.507 30.9963L152.611 30.9291L152.623 30.9145L152.627 30.8991L152.61 30.5112C152.608 30.5015 152.602 30.496 152.593 30.4948ZM152.858 30.3922L152.845 30.394L152.66 30.4785L152.65 30.4876L152.647 30.4976L152.665 30.8882L152.67 30.8991L152.678 30.9054L152.879 30.9899C152.892 30.993 152.902 30.9905 152.908 30.9827L152.912 30.9699L152.878 30.4122C152.875 30.4013 152.868 30.3946 152.858 30.3922ZM152.143 30.394C152.139 30.3916 152.133 30.3908 152.128 30.3918C152.123 30.3928 152.119 30.3955 152.116 30.3994L152.11 30.4122L152.076 30.9699C152.077 30.9808 152.083 30.9881 152.093 30.9917L152.108 30.9899L152.309 30.9054L152.319 30.8982L152.323 30.8882L152.34 30.4976L152.337 30.4867L152.327 30.4776L152.143 30.394Z" fill="#008080"/>
<path fill-rule="evenodd" clip-rule="evenodd" d="M152 13C152.855 13 153.732 13.02 154.582 13.0527L155.586 13.0963L156.547 13.1481L157.447 13.2035L158.269 13.2616C159.161 13.3233 160.001 13.669 160.64 14.2379C161.279 14.8067 161.677 15.5622 161.763 16.3713L161.803 16.7573L161.878 17.584C161.948 18.4407 162 19.3746 162 20.2676C162 21.1606 161.948 22.0945 161.878 22.9511L161.803 23.7778L161.763 24.1639C161.677 24.9731 161.279 25.7287 160.64 26.2976C160 26.8665 159.16 27.2121 158.268 27.2735L157.448 27.3308L156.548 27.3871L155.586 27.4389L154.582 27.4825C153.722 27.5163 152.861 27.5339 152 27.5352C151.139 27.5339 150.278 27.5163 149.418 27.4825L148.414 27.4389L147.453 27.3871L146.553 27.3308L145.731 27.2735C144.839 27.2119 143.999 26.8662 143.36 26.2973C142.721 25.7285 142.323 24.973 142.237 24.1639L142.197 23.7778L142.122 22.9511C142.046 22.0583 142.005 21.1631 142 20.2676C142 19.3746 142.052 18.4407 142.122 17.584L142.197 16.7573L142.237 16.3713C142.323 15.5623 142.721 14.807 143.36 14.2381C143.999 13.6693 144.838 13.3235 145.73 13.2616L146.551 13.2035L147.451 13.1481L148.413 13.0963L149.417 13.0527C150.278 13.0188 151.139 13.0013 152 13ZM150 18.0646V22.4706C150 22.8903 150.5 23.1519 150.9 22.943L155.1 20.74C155.191 20.6922 155.267 20.6234 155.32 20.5404C155.373 20.4575 155.401 20.3634 155.401 20.2676C155.401 20.1718 155.373 20.0777 155.32 19.9948C155.267 19.9118 155.191 19.843 155.1 19.7952L150.9 17.5931C150.809 17.5453 150.705 17.5201 150.6 17.5201C150.495 17.5201 150.391 17.5453 150.3 17.5932C150.209 17.6411 150.133 17.7099 150.08 17.7929C150.028 17.8758 150 17.9698 150 18.0655V18.0646Z" fill="#008080"/>
</svg>
