<svg width="266" height="52" viewBox="0 0 266 52" fill="none" xmlns="http://www.w3.org/2000/svg">
<path d="M1.12 19.8C1.12 17.6027 1.61067 15.64 2.592 13.912C3.59467 12.1627 4.94933 10.808 6.656 9.848C8.384 8.86667 10.3147 8.376 12.448 8.376C14.944 8.376 17.1307 9.016 19.008 10.296C20.8853 11.576 22.1973 13.3467 22.944 15.608H17.792C17.28 14.5413 16.5547 13.7413 15.616 13.208C14.6987 12.6747 13.632 12.408 12.416 12.408C11.1147 12.408 9.952 12.7173 8.928 13.336C7.92533 13.9333 7.136 14.7867 6.56 15.896C6.00533 17.0053 5.728 18.3067 5.728 19.8C5.728 21.272 6.00533 22.5733 6.56 23.704C7.136 24.8133 7.92533 25.6773 8.928 26.296C9.952 26.8933 11.1147 27.192 12.416 27.192C13.632 27.192 14.6987 26.9253 15.616 26.392C16.5547 25.8373 17.28 25.0267 17.792 23.96H22.944C22.1973 26.2427 20.8853 28.024 19.008 29.304C17.152 30.5627 14.9653 31.192 12.448 31.192C10.3147 31.192 8.384 30.712 6.656 29.752C4.94933 28.7707 3.59467 27.416 2.592 25.688C1.61067 23.96 1.12 21.9973 1.12 19.8ZM29.3305 7.32V31H24.8505V7.32H29.3305ZM34.1087 11.16C33.3194 11.16 32.6581 10.9147 32.1247 10.424C31.6127 9.912 31.3567 9.28267 31.3567 8.536C31.3567 7.78933 31.6127 7.17067 32.1247 6.68C32.6581 6.168 33.3194 5.912 34.1087 5.912C34.8981 5.912 35.5487 6.168 36.0608 6.68C36.5941 7.17067 36.8608 7.78933 36.8608 8.536C36.8608 9.28267 36.5941 9.912 36.0608 10.424C35.5487 10.9147 34.8981 11.16 34.1087 11.16ZM36.3168 13.272V31H31.8368V13.272H36.3168ZM55.303 21.752C55.303 22.392 55.2603 22.968 55.175 23.48H42.215C42.3217 24.76 42.7697 25.7627 43.559 26.488C44.3483 27.2133 45.319 27.576 46.471 27.576C48.135 27.576 49.319 26.8613 50.023 25.432H54.855C54.343 27.1387 53.3617 28.5467 51.911 29.656C50.4603 30.744 48.679 31.288 46.567 31.288C44.8603 31.288 43.3243 30.9147 41.959 30.168C40.615 29.4 39.559 28.3227 38.791 26.936C38.0443 25.5493 37.671 23.9493 37.671 22.136C37.671 20.3013 38.0443 18.6907 38.791 17.304C39.5377 15.9173 40.583 14.8507 41.927 14.104C43.271 13.3573 44.8177 12.984 46.567 12.984C48.2523 12.984 49.7563 13.3467 51.079 14.072C52.423 14.7973 53.4577 15.832 54.183 17.176C54.9297 18.4987 55.303 20.024 55.303 21.752ZM50.663 20.472C50.6417 19.32 50.2257 18.4027 49.415 17.72C48.6043 17.016 47.6123 16.664 46.439 16.664C45.3297 16.664 44.391 17.0053 43.623 17.688C42.8763 18.3493 42.4177 19.2773 42.247 20.472H50.663ZM66.477 13.016C68.589 13.016 70.2957 13.688 71.597 15.032C72.8983 16.3547 73.549 18.2107 73.549 20.6V31H69.069V21.208C69.069 19.8 68.717 18.7227 68.013 17.976C67.309 17.208 66.349 16.824 65.133 16.824C63.8957 16.824 62.9143 17.208 62.189 17.976C61.485 18.7227 61.133 19.8 61.133 21.208V31H56.653V13.272H61.133V15.48C61.7303 14.712 62.4877 14.1147 63.405 13.688C64.3437 13.24 65.3677 13.016 66.477 13.016ZM81.1053 16.952V25.528C81.1053 26.1253 81.2439 26.5627 81.5213 26.84C81.8199 27.096 82.3106 27.224 82.9933 27.224H85.0733V31H82.2573C78.4813 31 76.5933 29.1653 76.5933 25.496V16.952H74.4813V13.272H76.5933V8.888H81.1053V13.272H85.0733V16.952H81.1053ZM93.1595 31.288C91.7088 31.288 90.4075 31.032 89.2555 30.52C88.1035 29.9867 87.1862 29.272 86.5035 28.376C85.8422 27.48 85.4795 26.488 85.4155 25.4H89.9275C90.0128 26.0827 90.3435 26.648 90.9195 27.096C91.5168 27.544 92.2528 27.768 93.1275 27.768C93.9808 27.768 94.6422 27.5973 95.1115 27.256C95.6022 26.9147 95.8475 26.4773 95.8475 25.944C95.8475 25.368 95.5488 24.9413 94.9515 24.664C94.3755 24.3653 93.4475 24.0453 92.1675 23.704C90.8448 23.384 89.7568 23.0533 88.9035 22.712C88.0715 22.3707 87.3462 21.848 86.7275 21.144C86.1302 20.44 85.8315 19.4907 85.8315 18.296C85.8315 17.3147 86.1088 16.4187 86.6635 15.608C87.2395 14.7973 88.0502 14.1573 89.0955 13.688C90.1622 13.2187 91.4102 12.984 92.8395 12.984C94.9515 12.984 96.6368 13.5173 97.8955 14.584C99.1542 15.6293 99.8475 17.048 99.9755 18.84H95.6875C95.6235 18.136 95.3248 17.5813 94.7915 17.176C94.2795 16.7493 93.5862 16.536 92.7115 16.536C91.9008 16.536 91.2715 16.6853 90.8235 16.984C90.3968 17.2827 90.1835 17.6987 90.1835 18.232C90.1835 18.8293 90.4822 19.288 91.0795 19.608C91.6768 19.9067 92.6048 20.216 93.8635 20.536C95.1435 20.856 96.1995 21.1867 97.0315 21.528C97.8635 21.8693 98.5782 22.4027 99.1755 23.128C99.7942 23.832 100.114 24.7707 100.136 25.944C100.136 26.968 99.8475 27.8853 99.2715 28.696C98.7168 29.5067 97.9062 30.1467 96.8395 30.616C95.7942 31.064 94.5675 31.288 93.1595 31.288ZM112.078 12.28V17.88H119.598V21.432H112.078V27.352H120.558V31H107.598V8.632H120.558V12.28H112.078ZM132.501 31L128.853 25.496L125.621 31H120.821L126.613 22.104L120.757 13.272H125.813L129.429 18.744L132.693 13.272H137.493L131.669 22.104L137.557 31H132.501ZM142.551 15.832C143.127 15.0213 143.916 14.3493 144.919 13.816C145.943 13.2613 147.105 12.984 148.407 12.984C149.921 12.984 151.287 13.3573 152.503 14.104C153.74 14.8507 154.711 15.9173 155.415 17.304C156.14 18.6693 156.503 20.2587 156.503 22.072C156.503 23.8853 156.14 25.496 155.415 26.904C154.711 28.2907 153.74 29.368 152.503 30.136C151.287 30.904 149.921 31.288 148.407 31.288C147.105 31.288 145.953 31.0213 144.951 30.488C143.969 29.9547 143.169 29.2827 142.551 28.472V39.448H138.071V13.272H142.551V15.832ZM151.927 22.072C151.927 21.0053 151.703 20.088 151.255 19.32C150.828 18.5307 150.252 17.9333 149.527 17.528C148.823 17.1227 148.055 16.92 147.223 16.92C146.412 16.92 145.644 17.1333 144.919 17.56C144.215 17.9653 143.639 18.5627 143.191 19.352C142.764 20.1413 142.551 21.0693 142.551 22.136C142.551 23.2027 142.764 24.1307 143.191 24.92C143.639 25.7093 144.215 26.3173 144.919 26.744C145.644 27.1493 146.412 27.352 147.223 27.352C148.055 27.352 148.823 27.1387 149.527 26.712C150.252 26.2853 150.828 25.6773 151.255 24.888C151.703 24.0987 151.927 23.16 151.927 22.072ZM174.318 21.752C174.318 22.392 174.275 22.968 174.19 23.48H161.23C161.337 24.76 161.785 25.7627 162.574 26.488C163.363 27.2133 164.334 27.576 165.486 27.576C167.15 27.576 168.334 26.8613 169.038 25.432H173.87C173.358 27.1387 172.377 28.5467 170.926 29.656C169.475 30.744 167.694 31.288 165.582 31.288C163.875 31.288 162.339 30.9147 160.974 30.168C159.63 29.4 158.574 28.3227 157.806 26.936C157.059 25.5493 156.686 23.9493 156.686 22.136C156.686 20.3013 157.059 18.6907 157.806 17.304C158.553 15.9173 159.598 14.8507 160.942 14.104C162.286 13.3573 163.833 12.984 165.582 12.984C167.267 12.984 168.771 13.3467 170.094 14.072C171.438 14.7973 172.473 15.832 173.198 17.176C173.945 18.4987 174.318 20.024 174.318 21.752ZM169.678 20.472C169.657 19.32 169.241 18.4027 168.43 17.72C167.619 17.016 166.627 16.664 165.454 16.664C164.345 16.664 163.406 17.0053 162.638 17.688C161.891 18.3493 161.433 19.2773 161.262 20.472H169.678ZM180.148 16.024C180.724 15.0853 181.471 14.3493 182.388 13.816C183.327 13.2827 184.393 13.016 185.588 13.016V17.72H184.404C182.996 17.72 181.929 18.0507 181.204 18.712C180.5 19.3733 180.148 20.5253 180.148 22.168V31H175.668V13.272H180.148V16.024ZM188.957 11.16C188.168 11.16 187.507 10.9147 186.973 10.424C186.461 9.912 186.205 9.28267 186.205 8.536C186.205 7.78933 186.461 7.17067 186.973 6.68C187.507 6.168 188.168 5.912 188.957 5.912C189.747 5.912 190.397 6.168 190.909 6.68C191.443 7.17067 191.709 7.78933 191.709 8.536C191.709 9.28267 191.443 9.912 190.909 10.424C190.397 10.9147 189.747 11.16 188.957 11.16ZM191.165 13.272V31H186.685V13.272H191.165ZM210.152 21.752C210.152 22.392 210.109 22.968 210.024 23.48H197.064C197.17 24.76 197.618 25.7627 198.408 26.488C199.197 27.2133 200.168 27.576 201.32 27.576C202.984 27.576 204.168 26.8613 204.872 25.432H209.704C209.192 27.1387 208.21 28.5467 206.76 29.656C205.309 30.744 203.528 31.288 201.416 31.288C199.709 31.288 198.173 30.9147 196.808 30.168C195.464 29.4 194.408 28.3227 193.64 26.936C192.893 25.5493 192.52 23.9493 192.52 22.136C192.52 20.3013 192.893 18.6907 193.64 17.304C194.386 15.9173 195.432 14.8507 196.776 14.104C198.12 13.3573 199.666 12.984 201.416 12.984C203.101 12.984 204.605 13.3467 205.928 14.072C207.272 14.7973 208.306 15.832 209.032 17.176C209.778 18.4987 210.152 20.024 210.152 21.752ZM205.512 20.472C205.49 19.32 205.074 18.4027 204.264 17.72C203.453 17.016 202.461 16.664 201.288 16.664C200.178 16.664 199.24 17.0053 198.472 17.688C197.725 18.3493 197.266 19.2773 197.096 20.472H205.512ZM221.326 13.016C223.438 13.016 225.144 13.688 226.446 15.032C227.747 16.3547 228.398 18.2107 228.398 20.6V31H223.918V21.208C223.918 19.8 223.566 18.7227 222.862 17.976C222.158 17.208 221.198 16.824 219.982 16.824C218.744 16.824 217.763 17.208 217.038 17.976C216.334 18.7227 215.982 19.8 215.982 21.208V31H211.502V13.272H215.982V15.48C216.579 14.712 217.336 14.1147 218.254 13.688C219.192 13.24 220.216 13.016 221.326 13.016ZM229.586 22.136C229.586 20.3013 229.959 18.7013 230.706 17.336C231.453 15.9493 232.487 14.8827 233.81 14.136C235.133 13.368 236.647 12.984 238.354 12.984C240.551 12.984 242.365 13.5387 243.794 14.648C245.245 15.736 246.215 17.272 246.706 19.256H241.874C241.618 18.488 241.181 17.8907 240.562 17.464C239.965 17.016 239.218 16.792 238.322 16.792C237.042 16.792 236.029 17.2613 235.282 18.2C234.535 19.1173 234.162 20.4293 234.162 22.136C234.162 23.8213 234.535 25.1333 235.282 26.072C236.029 26.9893 237.042 27.448 238.322 27.448C240.135 27.448 241.319 26.6373 241.874 25.016H246.706C246.215 26.936 245.245 28.4613 243.794 29.592C242.343 30.7227 240.53 31.288 238.354 31.288C236.647 31.288 235.133 30.9147 233.81 30.168C232.487 29.4 231.453 28.3333 230.706 26.968C229.959 25.5813 229.586 23.9707 229.586 22.136ZM264.548 21.752C264.548 22.392 264.505 22.968 264.42 23.48H251.46C251.567 24.76 252.015 25.7627 252.804 26.488C253.593 27.2133 254.564 27.576 255.716 27.576C257.38 27.576 258.564 26.8613 259.268 25.432H264.1C263.588 27.1387 262.607 28.5467 261.156 29.656C259.705 30.744 257.924 31.288 255.812 31.288C254.105 31.288 252.569 30.9147 251.204 30.168C249.86 29.4 248.804 28.3227 248.036 26.936C247.289 25.5493 246.916 23.9493 246.916 22.136C246.916 20.3013 247.289 18.6907 248.036 17.304C248.783 15.9173 249.828 14.8507 251.172 14.104C252.516 13.3573 254.063 12.984 255.812 12.984C257.497 12.984 259.001 13.3467 260.324 14.072C261.668 14.7973 262.703 15.832 263.428 17.176C264.175 18.4987 264.548 20.024 264.548 21.752ZM259.908 20.472C259.887 19.32 259.471 18.4027 258.66 17.72C257.849 17.016 256.857 16.664 255.684 16.664C254.575 16.664 253.636 17.0053 252.868 17.688C252.121 18.3493 251.663 19.2773 251.492 20.472H259.908Z" fill="white"/>
<line x1="57.5" y1="50.5" x2="208.5" y2="50.5" stroke="white" stroke-width="3" stroke-linecap="round"/>
</svg>
