<svg width="335" height="40" viewBox="0 0 335 40" fill="none" xmlns="http://www.w3.org/2000/svg">
<path d="M132.76 15.384C132.248 14.4453 131.544 13.7307 130.648 13.24C129.752 12.7493 128.707 12.504 127.512 12.504C126.189 12.504 125.016 12.8027 123.992 13.4C122.968 13.9973 122.168 14.8507 121.592 15.96C121.016 17.0693 120.728 18.3493 120.728 19.8C120.728 21.2933 121.016 22.5947 121.592 23.704C122.189 24.8133 123.011 25.6667 124.056 26.264C125.101 26.8613 126.317 27.16 127.704 27.16C129.411 27.16 130.808 26.712 131.896 25.816C132.984 24.8987 133.699 23.6293 134.04 22.008H126.36V18.584H138.456V22.488C138.157 24.0453 137.517 25.4853 136.536 26.808C135.555 28.1307 134.285 29.1973 132.728 30.008C131.192 30.7973 129.464 31.192 127.544 31.192C125.389 31.192 123.437 30.712 121.688 29.752C119.96 28.7707 118.595 27.416 117.592 25.688C116.611 23.96 116.12 21.9973 116.12 19.8C116.12 17.6027 116.611 15.64 117.592 13.912C118.595 12.1627 119.96 10.808 121.688 9.848C123.437 8.86667 125.379 8.376 127.512 8.376C130.029 8.376 132.216 8.99467 134.072 10.232C135.928 11.448 137.208 13.1653 137.912 15.384H132.76ZM138.698 22.072C138.698 20.28 139.05 18.6907 139.754 17.304C140.48 15.9173 141.451 14.8507 142.667 14.104C143.904 13.3573 145.28 12.984 146.795 12.984C148.117 12.984 149.269 13.2507 150.251 13.784C151.253 14.3173 152.053 14.9893 152.651 15.8V13.272H157.163V31H152.651V28.408C152.075 29.24 151.275 29.9333 150.251 30.488C149.248 31.0213 148.085 31.288 146.763 31.288C145.269 31.288 143.904 30.904 142.667 30.136C141.451 29.368 140.48 28.2907 139.754 26.904C139.05 25.496 138.698 23.8853 138.698 22.072ZM152.651 22.136C152.651 21.048 152.437 20.12 152.011 19.352C151.584 18.5627 151.008 17.9653 150.283 17.56C149.557 17.1333 148.779 16.92 147.947 16.92C147.115 16.92 146.347 17.1227 145.642 17.528C144.939 17.9333 144.363 18.5307 143.915 19.32C143.488 20.088 143.275 21.0053 143.275 22.072C143.275 23.1387 143.488 24.0773 143.915 24.888C144.363 25.6773 144.939 26.2853 145.642 26.712C146.368 27.1387 147.136 27.352 147.947 27.352C148.779 27.352 149.557 27.1493 150.283 26.744C151.008 26.3173 151.584 25.72 152.011 24.952C152.437 24.1627 152.651 23.224 152.651 22.136ZM164.098 7.32V31H159.618V7.32H164.098ZM171.084 7.32V31H166.604V7.32H171.084ZM190.071 21.752C190.071 22.392 190.028 22.968 189.943 23.48H176.983C177.089 24.76 177.537 25.7627 178.326 26.488C179.116 27.2133 180.087 27.576 181.239 27.576C182.903 27.576 184.087 26.8613 184.791 25.432H189.623C189.111 27.1387 188.129 28.5467 186.679 29.656C185.228 30.744 183.447 31.288 181.335 31.288C179.628 31.288 178.092 30.9147 176.727 30.168C175.382 29.4 174.326 28.3227 173.558 26.936C172.812 25.5493 172.438 23.9493 172.438 22.136C172.438 20.3013 172.812 18.6907 173.558 17.304C174.305 15.9173 175.35 14.8507 176.694 14.104C178.039 13.3573 179.585 12.984 181.335 12.984C183.02 12.984 184.524 13.3467 185.847 14.072C187.191 14.7973 188.225 15.832 188.951 17.176C189.697 18.4987 190.071 20.024 190.071 21.752ZM185.431 20.472C185.409 19.32 184.993 18.4027 184.182 17.72C183.372 17.016 182.38 16.664 181.207 16.664C180.097 16.664 179.159 17.0053 178.391 17.688C177.644 18.3493 177.185 19.2773 177.015 20.472H185.431ZM195.901 16.024C196.477 15.0853 197.223 14.3493 198.141 13.816C199.079 13.2827 200.146 13.016 201.341 13.016V17.72H200.157C198.749 17.72 197.682 18.0507 196.957 18.712C196.253 19.3733 195.901 20.5253 195.901 22.168V31H191.421V13.272H195.901V16.024ZM219.398 13.272L208.422 39.384H203.654L207.494 30.552L200.39 13.272H205.414L209.99 25.656L214.63 13.272H219.398Z" fill="#252525" fill-opacity="0.7"/>
<line x1="1.5" y1="19.5" x2="106.5" y2="19.5" stroke="#252525" stroke-opacity="0.7" stroke-width="3" stroke-linecap="round"/>
<line x1="227" y1="19.5" x2="335" y2="19.5" stroke="#252525" stroke-opacity="0.7" stroke-width="3"/>
</svg>
