<svg width="93" height="75" viewBox="0 0 93 75" fill="none" xmlns="http://www.w3.org/2000/svg">
<path d="M38.5333 1.21777H33.2444C32.9438 1.21777 32.6556 1.33068 32.443 1.53167C32.2305 1.73265 32.1111 2.00524 32.1111 2.28947V18.0076C32.1111 18.1484 32.1404 18.2877 32.1974 18.4178C32.2543 18.5478 32.3378 18.6659 32.443 18.7654C32.5483 18.865 32.6732 18.9439 32.8107 18.9978C32.9482 19.0516 33.0956 19.0793 33.2444 19.0793H38.5333C38.6821 19.0793 38.8295 19.0516 38.967 18.9978C39.1045 18.9439 39.2294 18.865 39.3347 18.7654C39.4399 18.6659 39.5234 18.5478 39.5804 18.4178C39.6373 18.2877 39.6666 18.1484 39.6666 18.0076V2.28947C39.6666 2.00524 39.5472 1.73265 39.3347 1.53167C39.1221 1.33068 38.8339 1.21777 38.5333 1.21777ZM61.1999 1.21777H55.911C55.6105 1.21777 55.3222 1.33068 55.1096 1.53167C54.8971 1.73265 54.7777 2.00524 54.7777 2.28947V18.0076C54.7777 18.1484 54.807 18.2877 54.864 18.4178C54.9209 18.5478 55.0044 18.6659 55.1096 18.7654C55.2149 18.865 55.3398 18.9439 55.4773 18.9978C55.6148 19.0516 55.7622 19.0793 55.911 19.0793H61.1999C61.3487 19.0793 61.4961 19.0516 61.6336 18.9978C61.7711 18.9439 61.8961 18.865 62.0013 18.7654C62.1065 18.6659 62.19 18.5478 62.247 18.4178C62.3039 18.2877 62.3332 18.1484 62.3332 18.0076V2.28947C62.3332 2.00524 62.2138 1.73265 62.0013 1.53167C61.7888 1.33068 61.5005 1.21777 61.1999 1.21777Z" stroke="white" stroke-width="2.43567" stroke-linecap="round" stroke-linejoin="round"/>
<path d="M39.6667 10.1492H54.7777M26.4445 14.436V5.86247C26.4445 5.57824 26.5639 5.30564 26.7764 5.10466C26.9889 4.90368 27.2772 4.79077 27.5778 4.79077H30.9778C31.2784 4.79077 31.5666 4.90368 31.7792 5.10466C31.9917 5.30564 32.1111 5.57824 32.1111 5.86247V14.436C32.1111 14.7202 31.9917 14.9928 31.7792 15.1938C31.5666 15.3948 31.2784 15.5077 30.9778 15.5077H27.5778C27.2772 15.5077 26.9889 15.3948 26.7764 15.1938C26.5639 14.9928 26.4445 14.7202 26.4445 14.436ZM67.9999 14.436V5.86247C67.9999 5.57824 67.8805 5.30564 67.668 5.10466C67.4554 4.90368 67.1672 4.79077 66.8666 4.79077H63.4666C63.166 4.79077 62.8778 4.90368 62.6652 5.10466C62.4527 5.30564 62.3333 5.57824 62.3333 5.86247V14.436C62.3333 14.7202 62.4527 14.9928 62.6652 15.1938C62.8778 15.3948 63.166 15.5077 63.4666 15.5077H66.8666C67.1672 15.5077 67.4554 15.3948 67.668 15.1938C67.8805 14.9928 67.9999 14.7202 67.9999 14.436Z" stroke="white" stroke-width="2.43567" stroke-linecap="round" stroke-linejoin="round"/>
<path d="M35.0925 38.4369C34.7325 37.7436 34.2325 37.2236 33.5925 36.8769C32.9525 36.5169 32.2125 36.3369 31.3725 36.3369C30.4525 36.3369 29.6325 36.5436 28.9125 36.9569C28.1925 37.3702 27.6258 37.9569 27.2125 38.7169C26.8125 39.4769 26.6125 40.3569 26.6125 41.3569C26.6125 42.3569 26.8125 43.2436 27.2125 44.0169C27.6258 44.7769 28.1925 45.3636 28.9125 45.7769C29.6325 46.1902 30.4525 46.3969 31.3725 46.3969C32.6125 46.3969 33.6191 46.0502 34.3925 45.3569C35.1658 44.6636 35.6391 43.7236 35.8125 42.5369H30.5925V40.7169H38.2525V42.4969C38.1058 43.5769 37.7191 44.5702 37.0925 45.4769C36.4791 46.3836 35.6725 47.1102 34.6725 47.6569C33.6858 48.1902 32.5858 48.4569 31.3725 48.4569C30.0658 48.4569 28.8725 48.1569 27.7925 47.5569C26.7125 46.9436 25.8525 46.0969 25.2125 45.0169C24.5858 43.9369 24.2725 42.7169 24.2725 41.3569C24.2725 39.9969 24.5858 38.7769 25.2125 37.6969C25.8525 36.6169 26.7125 35.7769 27.7925 35.1769C28.8858 34.5636 30.0791 34.2569 31.3725 34.2569C32.8525 34.2569 34.1658 34.6236 35.3125 35.3569C36.4725 36.0769 37.3125 37.1036 37.8325 38.4369H35.0925ZM49.2212 37.3169L42.4612 53.5169H40.1012L42.3412 48.1569L38.0012 37.3169H40.5412L43.6412 45.7169L46.8612 37.3169H49.2212ZM63.0818 37.1369C63.9485 37.1369 64.7218 37.3169 65.4018 37.6769C66.0952 38.0369 66.6352 38.5702 67.0218 39.2769C67.4218 39.9836 67.6218 40.8369 67.6218 41.8369V48.3369H65.3618V42.1769C65.3618 41.1902 65.1152 40.4369 64.6218 39.9169C64.1285 39.3836 63.4552 39.1169 62.6018 39.1169C61.7485 39.1169 61.0685 39.3836 60.5618 39.9169C60.0685 40.4369 59.8218 41.1902 59.8218 42.1769V48.3369H57.5618V42.1769C57.5618 41.1902 57.3152 40.4369 56.8218 39.9169C56.3285 39.3836 55.6552 39.1169 54.8018 39.1169C53.9485 39.1169 53.2685 39.3836 52.7618 39.9169C52.2685 40.4369 52.0218 41.1902 52.0218 42.1769V48.3369H49.7418V37.3169H52.0218V38.5769C52.3952 38.1236 52.8685 37.7702 53.4418 37.5169C54.0152 37.2636 54.6285 37.1369 55.2818 37.1369C56.1618 37.1369 56.9485 37.3236 57.6418 37.6969C58.3352 38.0702 58.8685 38.6102 59.2418 39.3169C59.5752 38.6502 60.0952 38.1236 60.8018 37.7369C61.5085 37.3369 62.2685 37.1369 63.0818 37.1369Z" fill="white"/>
</svg>
