<svg width="69" height="67" viewBox="0 0 69 67" fill="none" xmlns="http://www.w3.org/2000/svg">
<path d="M53.7633 29.2361H40.5863V32.4837H53.9013C54.9974 32.4837 55.2004 31.5338 55.2004 31.5338V30.7463C55.2004 30.7463 55.1922 29.2442 53.7633 29.2442V29.2361ZM51.9447 28.5947C53.739 28.5947 55.2004 27.1333 55.2004 25.3309C55.2004 23.5204 53.739 22.0672 51.9447 22.0672C50.1504 22.0672 48.689 23.5286 48.689 25.3309C48.689 27.1333 50.1504 28.5947 51.9447 28.5947ZM45.0842 28.4242C46.7973 28.4242 48.1694 27.2226 48.1694 25.5096C48.1694 23.8046 46.7892 22.9115 45.0923 22.8953L40.5945 23.4636V28.4161H45.0842V28.4242ZM30.4621 7.25829C32.4593 7.25829 34.075 5.63451 34.075 3.62915C34.075 1.62378 32.4593 0 30.4621 0C28.4648 0 26.8492 1.62378 26.8492 3.62915C26.8492 5.63451 28.4648 7.25829 30.4621 7.25829ZM26.7761 18.9982L26.7436 18.9495L25.1036 15.1417V22.741H29.9993L31.071 21.6044L28.1726 20.4921C27.4825 20.2323 26.9953 19.6477 26.7842 18.9982H26.7761ZM27.8153 18.6572C27.9777 19.0144 28.27 19.2986 28.6353 19.4366L34.2211 21.5069C34.9356 21.8236 35.7718 21.4988 36.0804 20.7762C36.397 20.0537 36.0722 19.2174 35.3497 18.9008L30.2023 16.9522L28.611 13.1364L29.6502 12.7467L30.9979 16.0186L34.9112 17.4719V13.4774L36.9897 14.7114L38.0289 19.9319C38.2806 20.6788 39.0844 21.0685 39.8313 20.8087C40.5701 20.557 40.9598 19.7451 40.7081 18.9982L39.5471 13.9726C39.4741 13.6885 39.3117 13.4449 39.0925 13.2582C38.4998 12.6005 35.4877 9.23118 35.2766 9.01197C34.96 8.69533 34.2455 8.12701 32.8896 8.12701H28.0183C25.2498 8.12701 24.7139 10.9524 25.2822 12.3894L27.8316 18.6572H27.8153ZM39.7826 23.5529H17.8372C17.0416 23.5529 16.2378 24.0076 16.2378 24.9981V32.4837H39.7826V23.5529Z" fill="white"/>
<path d="M22.4242 61.8805C21.4909 61.8805 20.6509 61.7205 19.9042 61.4005C19.1575 61.0671 18.5709 60.6005 18.1442 60.0005C17.7175 59.4005 17.5042 58.7005 17.5042 57.9005H19.9442C19.9975 58.5005 20.2309 58.9938 20.6442 59.3805C21.0709 59.7671 21.6642 59.9605 22.4242 59.9605C23.2109 59.9605 23.8242 59.7738 24.2642 59.4005C24.7042 59.0138 24.9242 58.5205 24.9242 57.9205C24.9242 57.4538 24.7842 57.0738 24.5042 56.7805C24.2375 56.4871 23.8975 56.2605 23.4842 56.1005C23.0842 55.9405 22.5242 55.7671 21.8042 55.5805C20.8975 55.3405 20.1575 55.1005 19.5842 54.8605C19.0242 54.6071 18.5442 54.2205 18.1442 53.7005C17.7442 53.1805 17.5442 52.4871 17.5442 51.6205C17.5442 50.8205 17.7442 50.1205 18.1442 49.5205C18.5442 48.9205 19.1042 48.4605 19.8242 48.1405C20.5442 47.8205 21.3775 47.6605 22.3242 47.6605C23.6709 47.6605 24.7709 48.0005 25.6242 48.6805C26.4909 49.3471 26.9709 50.2671 27.0642 51.4405H24.5442C24.5042 50.9338 24.2642 50.5005 23.8242 50.1405C23.3842 49.7805 22.8042 49.6005 22.0842 49.6005C21.4309 49.6005 20.8975 49.7671 20.4842 50.1005C20.0709 50.4338 19.8642 50.9138 19.8642 51.5405C19.8642 51.9671 19.9909 52.3205 20.2442 52.6005C20.5109 52.8671 20.8442 53.0805 21.2442 53.2405C21.6442 53.4005 22.1909 53.5738 22.8842 53.7605C23.8042 54.0138 24.5509 54.2671 25.1242 54.5205C25.7109 54.7738 26.2042 55.1671 26.6042 55.7005C27.0175 56.2205 27.2242 56.9205 27.2242 57.8005C27.2242 58.5071 27.0309 59.1738 26.6442 59.8005C26.2709 60.4271 25.7175 60.9338 24.9842 61.3205C24.2642 61.6938 23.4109 61.8805 22.4242 61.8805ZM38.4345 51.9805C38.4345 52.6871 38.2679 53.3538 37.9345 53.9805C37.6012 54.6071 37.0679 55.1205 36.3345 55.5205C35.6012 55.9071 34.6612 56.1005 33.5145 56.1005H30.9945V61.7405H28.7145V47.8405H33.5145C34.5812 47.8405 35.4812 48.0271 36.2145 48.4005C36.9612 48.7605 37.5145 49.2538 37.8745 49.8805C38.2479 50.5071 38.4345 51.2071 38.4345 51.9805ZM33.5145 54.2405C34.3812 54.2405 35.0279 54.0471 35.4545 53.6605C35.8812 53.2605 36.0945 52.7005 36.0945 51.9805C36.0945 50.4605 35.2345 49.7005 33.5145 49.7005H30.9945V54.2405H33.5145ZM47.7891 58.9005H41.9691L40.9691 61.7405H38.5891L43.5691 47.8205H46.2091L51.1891 61.7405H48.7891L47.7891 58.9005ZM47.1491 57.0405L44.8891 50.5805L42.6091 57.0405H47.1491Z" fill="white"/>
</svg>
