<svg width="242" height="64" viewBox="0 0 242 64" fill="none" xmlns="http://www.w3.org/2000/svg">
<path d="M56.7027 58.6251C55.7693 58.6251 54.9293 58.4651 54.1827 58.1451C53.436 57.8118 52.8493 57.3451 52.4227 56.7451C51.996 56.1451 51.7827 55.4451 51.7827 54.6451H54.2227C54.276 55.2451 54.5093 55.7384 54.9227 56.1251C55.3493 56.5118 55.9427 56.7051 56.7027 56.7051C57.4893 56.7051 58.1027 56.5184 58.5427 56.1451C58.9827 55.7584 59.2027 55.2651 59.2027 54.6651C59.2027 54.1984 59.0627 53.8184 58.7827 53.5251C58.516 53.2318 58.176 53.0051 57.7627 52.8451C57.3627 52.6851 56.8027 52.5118 56.0827 52.3251C55.176 52.0851 54.436 51.8451 53.8627 51.6051C53.3027 51.3518 52.8227 50.9651 52.4227 50.4451C52.0227 49.9251 51.8227 49.2318 51.8227 48.3651C51.8227 47.5651 52.0227 46.8651 52.4227 46.2651C52.8227 45.6651 53.3827 45.2051 54.1027 44.8851C54.8227 44.5651 55.656 44.4051 56.6027 44.4051C57.9493 44.4051 59.0493 44.7451 59.9027 45.4251C60.7693 46.0918 61.2493 47.0118 61.3427 48.1851H58.8227C58.7827 47.6784 58.5427 47.2451 58.1027 46.8851C57.6627 46.5251 57.0827 46.3451 56.3627 46.3451C55.7093 46.3451 55.176 46.5118 54.7627 46.8451C54.3493 47.1784 54.1427 47.6584 54.1427 48.2851C54.1427 48.7118 54.2693 49.0651 54.5227 49.3451C54.7893 49.6118 55.1227 49.8251 55.5227 49.9851C55.9227 50.1451 56.4693 50.3184 57.1627 50.5051C58.0827 50.7584 58.8293 51.0118 59.4027 51.2651C59.9893 51.5184 60.4827 51.9118 60.8827 52.4451C61.296 52.9651 61.5027 53.6651 61.5027 54.5451C61.5027 55.2518 61.3093 55.9184 60.9227 56.5451C60.5493 57.1718 59.996 57.6784 59.2627 58.0651C58.5427 58.4384 57.6893 58.6251 56.7027 58.6251ZM77.793 47.4651L74.373 58.4851H71.973L69.753 50.3451L67.533 58.4851H65.133L61.693 47.4651H64.013L66.313 56.3251L68.653 47.4651H71.033L73.273 56.2851L75.553 47.4651H77.793ZM79.4569 46.0051C79.0436 46.0051 78.6969 45.8651 78.4169 45.5851C78.1369 45.3051 77.9969 44.9584 77.9969 44.5451C77.9969 44.1318 78.1369 43.7851 78.4169 43.5051C78.6969 43.2251 79.0436 43.0851 79.4569 43.0851C79.8569 43.0851 80.1969 43.2251 80.4769 43.5051C80.7569 43.7851 80.8969 44.1318 80.8969 44.5451C80.8969 44.9584 80.7569 45.3051 80.4769 45.5851C80.1969 45.8651 79.8569 46.0051 79.4569 46.0051ZM80.5769 47.4651V58.4851H78.2969V47.4651H80.5769ZM95.7103 47.2851C96.577 47.2851 97.3503 47.4651 98.0303 47.8251C98.7237 48.1851 99.2637 48.7184 99.6503 49.4251C100.05 50.1318 100.25 50.9851 100.25 51.9851V58.4851H97.9903V52.3251C97.9903 51.3384 97.7437 50.5851 97.2503 50.0651C96.757 49.5318 96.0837 49.2651 95.2303 49.2651C94.377 49.2651 93.697 49.5318 93.1903 50.0651C92.697 50.5851 92.4503 51.3384 92.4503 52.3251V58.4851H90.1903V52.3251C90.1903 51.3384 89.9437 50.5851 89.4503 50.0651C88.957 49.5318 88.2837 49.2651 87.4303 49.2651C86.577 49.2651 85.897 49.5318 85.3903 50.0651C84.897 50.5851 84.6503 51.3384 84.6503 52.3251V58.4851H82.3703V47.4651H84.6503V48.7251C85.0237 48.2718 85.497 47.9184 86.0703 47.6651C86.6437 47.4118 87.257 47.2851 87.9103 47.2851C88.7903 47.2851 89.577 47.4718 90.2703 47.8451C90.9637 48.2184 91.497 48.7584 91.8703 49.4651C92.2037 48.7984 92.7237 48.2718 93.4303 47.8851C94.137 47.4851 94.897 47.2851 95.7103 47.2851ZM115.292 47.2851C116.158 47.2851 116.932 47.4651 117.612 47.8251C118.305 48.1851 118.845 48.7184 119.232 49.4251C119.632 50.1318 119.832 50.9851 119.832 51.9851V58.4851H117.572V52.3251C117.572 51.3384 117.325 50.5851 116.832 50.0651C116.338 49.5318 115.665 49.2651 114.812 49.2651C113.958 49.2651 113.278 49.5318 112.772 50.0651C112.278 50.5851 112.032 51.3384 112.032 52.3251V58.4851H109.772V52.3251C109.772 51.3384 109.525 50.5851 109.032 50.0651C108.538 49.5318 107.865 49.2651 107.012 49.2651C106.158 49.2651 105.478 49.5318 104.972 50.0651C104.478 50.5851 104.232 51.3384 104.232 52.3251V58.4851H101.952V47.4651H104.232V48.7251C104.605 48.2718 105.078 47.9184 105.652 47.6651C106.225 47.4118 106.838 47.2851 107.492 47.2851C108.372 47.2851 109.158 47.4718 109.852 47.8451C110.545 48.2184 111.078 48.7584 111.452 49.4651C111.785 48.7984 112.305 48.2718 113.012 47.8851C113.718 47.4851 114.478 47.2851 115.292 47.2851ZM122.693 46.0051C122.28 46.0051 121.933 45.8651 121.653 45.5851C121.373 45.3051 121.233 44.9584 121.233 44.5451C121.233 44.1318 121.373 43.7851 121.653 43.5051C121.933 43.2251 122.28 43.0851 122.693 43.0851C123.093 43.0851 123.433 43.2251 123.713 43.5051C123.993 43.7851 124.133 44.1318 124.133 44.5451C124.133 44.9584 123.993 45.3051 123.713 45.5851C123.433 45.8651 123.093 46.0051 122.693 46.0051ZM123.813 47.4651V58.4851H121.533V47.4651H123.813ZM131.166 47.2851C132.033 47.2851 132.806 47.4651 133.486 47.8251C134.18 48.1851 134.72 48.7184 135.106 49.4251C135.493 50.1318 135.686 50.9851 135.686 51.9851V58.4851H133.426V52.3251C133.426 51.3384 133.18 50.5851 132.686 50.0651C132.193 49.5318 131.52 49.2651 130.666 49.2651C129.813 49.2651 129.133 49.5318 128.626 50.0651C128.133 50.5851 127.886 51.3384 127.886 52.3251V58.4851H125.606V47.4651H127.886V48.7251C128.26 48.2718 128.733 47.9184 129.306 47.6651C129.893 47.4118 130.513 47.2851 131.166 47.2851ZM141.835 47.2851C142.688 47.2851 143.441 47.4584 144.095 47.8051C144.761 48.1384 145.281 48.5584 145.655 49.0651V47.4651H147.955V58.6651C147.955 59.6784 147.741 60.5784 147.315 61.3651C146.888 62.1651 146.268 62.7918 145.455 63.2451C144.655 63.6984 143.695 63.9251 142.575 63.9251C141.081 63.9251 139.841 63.5718 138.855 62.8651C137.868 62.1718 137.308 61.2251 137.175 60.0251H139.435C139.608 60.5984 139.975 61.0584 140.535 61.4051C141.108 61.7651 141.788 61.9451 142.575 61.9451C143.495 61.9451 144.235 61.6651 144.795 61.1051C145.368 60.5451 145.655 59.7318 145.655 58.6651V56.8251C145.268 57.3451 144.741 57.7851 144.075 58.1451C143.421 58.4918 142.675 58.6651 141.835 58.6651C140.875 58.6651 139.995 58.4251 139.195 57.9451C138.408 57.4518 137.781 56.7718 137.315 55.9051C136.861 55.0251 136.635 54.0318 136.635 52.9251C136.635 51.8184 136.861 50.8384 137.315 49.9851C137.781 49.1318 138.408 48.4718 139.195 48.0051C139.995 47.5251 140.875 47.2851 141.835 47.2851ZM145.655 52.9651C145.655 52.2051 145.495 51.5451 145.175 50.9851C144.868 50.4251 144.461 49.9984 143.955 49.7051C143.448 49.4118 142.901 49.2651 142.315 49.2651C141.728 49.2651 141.181 49.4118 140.675 49.7051C140.168 49.9851 139.755 50.4051 139.435 50.9651C139.128 51.5118 138.975 52.1651 138.975 52.9251C138.975 53.6851 139.128 54.3518 139.435 54.9251C139.755 55.4984 140.168 55.9384 140.675 56.2451C141.195 56.5384 141.741 56.6851 142.315 56.6851C142.901 56.6851 143.448 56.5384 143.955 56.2451C144.461 55.9518 144.868 55.5251 145.175 54.9651C145.495 54.3918 145.655 53.7251 145.655 52.9651ZM163.465 48.7251C163.465 49.4318 163.298 50.0984 162.965 50.7251C162.631 51.3518 162.098 51.8651 161.365 52.2651C160.631 52.6518 159.691 52.8451 158.545 52.8451H156.025V58.4851H153.745V44.5851H158.545C159.611 44.5851 160.511 44.7718 161.245 45.1451C161.991 45.5051 162.545 45.9984 162.905 46.6251C163.278 47.2518 163.465 47.9518 163.465 48.7251ZM158.545 50.9851C159.411 50.9851 160.058 50.7918 160.485 50.4051C160.911 50.0051 161.125 49.4451 161.125 48.7251C161.125 47.2051 160.265 46.4451 158.545 46.4451H156.025V50.9851H158.545ZM169.219 58.6651C168.179 58.6651 167.239 58.4318 166.399 57.9651C165.559 57.4851 164.899 56.8184 164.419 55.9651C163.939 55.0984 163.699 54.0984 163.699 52.9651C163.699 51.8451 163.946 50.8518 164.439 49.9851C164.932 49.1184 165.606 48.4518 166.459 47.9851C167.312 47.5184 168.266 47.2851 169.319 47.2851C170.372 47.2851 171.326 47.5184 172.179 47.9851C173.032 48.4518 173.706 49.1184 174.199 49.9851C174.692 50.8518 174.939 51.8451 174.939 52.9651C174.939 54.0851 174.686 55.0784 174.179 55.9451C173.672 56.8118 172.979 57.4851 172.099 57.9651C171.232 58.4318 170.272 58.6651 169.219 58.6651ZM169.219 56.6851C169.806 56.6851 170.352 56.5451 170.859 56.2651C171.379 55.9851 171.799 55.5651 172.119 55.0051C172.439 54.4451 172.599 53.7651 172.599 52.9651C172.599 52.1651 172.446 51.4918 172.139 50.9451C171.832 50.3851 171.426 49.9651 170.919 49.6851C170.412 49.4051 169.866 49.2651 169.279 49.2651C168.692 49.2651 168.146 49.4051 167.639 49.6851C167.146 49.9651 166.752 50.3851 166.459 50.9451C166.166 51.4918 166.019 52.1651 166.019 52.9651C166.019 54.1518 166.319 55.0718 166.919 55.7251C167.532 56.3651 168.299 56.6851 169.219 56.6851ZM180.773 58.6651C179.733 58.6651 178.793 58.4318 177.953 57.9651C177.113 57.4851 176.453 56.8184 175.973 55.9651C175.493 55.0984 175.253 54.0984 175.253 52.9651C175.253 51.8451 175.5 50.8518 175.993 49.9851C176.486 49.1184 177.16 48.4518 178.013 47.9851C178.866 47.5184 179.82 47.2851 180.873 47.2851C181.926 47.2851 182.88 47.5184 183.733 47.9851C184.586 48.4518 185.26 49.1184 185.753 49.9851C186.246 50.8518 186.493 51.8451 186.493 52.9651C186.493 54.0851 186.24 55.0784 185.733 55.9451C185.226 56.8118 184.533 57.4851 183.653 57.9651C182.786 58.4318 181.826 58.6651 180.773 58.6651ZM180.773 56.6851C181.36 56.6851 181.906 56.5451 182.413 56.2651C182.933 55.9851 183.353 55.5651 183.673 55.0051C183.993 54.4451 184.153 53.7651 184.153 52.9651C184.153 52.1651 184 51.4918 183.693 50.9451C183.386 50.3851 182.98 49.9651 182.473 49.6851C181.966 49.4051 181.42 49.2651 180.833 49.2651C180.246 49.2651 179.7 49.4051 179.193 49.6851C178.7 49.9651 178.306 50.3851 178.013 50.9451C177.72 51.4918 177.573 52.1651 177.573 52.9651C177.573 54.1518 177.873 55.0718 178.473 55.7251C179.086 56.3651 179.853 56.6851 180.773 56.6851ZM189.827 43.6851V58.4851H187.547V43.6851H189.827Z" fill="white"/>
<path fill-rule="evenodd" clip-rule="evenodd" d="M109.719 24.1392C110.834 22.3952 113.221 22.4521 114.408 23.9703C116.016 26.0276 118.26 28.0103 121.783 28.0103C125.37 28.0103 127.58 26.4206 129.098 24.3892C130.268 22.8272 132.81 22.5722 134.035 24.4282C135.051 25.9627 136.152 27.1675 138.3 27.6725C138.457 27.7085 138.605 27.775 138.735 27.8683C138.866 27.9615 138.977 28.0797 139.061 28.2159C139.146 28.3521 139.203 28.5038 139.229 28.6622C139.255 28.8205 139.25 28.9825 139.213 29.1386C139.176 29.2948 139.109 29.4422 139.015 29.5723C138.921 29.7024 138.802 29.8127 138.665 29.8967C138.529 29.9808 138.377 30.037 138.218 30.0622C138.06 30.0873 137.898 30.0809 137.742 30.0432C134.735 29.3353 133.184 27.554 132.003 25.7711C131.96 25.703 131.898 25.6478 131.826 25.6113C131.754 25.5748 131.673 25.5582 131.593 25.5632C131.486 25.5664 131.382 25.594 131.287 25.6438C131.193 25.6936 131.111 25.7644 131.049 25.8506C129.155 28.3837 126.265 30.4459 121.783 30.4459C117.169 30.4459 114.296 27.7829 112.489 25.469C112.443 25.4057 112.383 25.3542 112.314 25.3189C112.244 25.2836 112.167 25.2655 112.089 25.2661C112.025 25.2668 111.962 25.2842 111.906 25.3167C111.85 25.3491 111.804 25.3955 111.771 25.4512C110.57 27.3283 109.019 29.2914 105.825 30.0432C105.669 30.0809 105.507 30.0873 105.348 30.0622C105.19 30.037 105.038 29.9808 104.901 29.8967C104.765 29.8127 104.646 29.7024 104.552 29.5723C104.458 29.4422 104.391 29.2948 104.354 29.1386C104.317 28.9825 104.311 28.8205 104.337 28.6622C104.363 28.5038 104.42 28.3521 104.505 28.2159C104.59 28.0797 104.701 27.9615 104.832 27.8683C104.962 27.775 105.11 27.7085 105.266 27.6725C107.541 27.1367 108.644 25.8214 109.719 24.1392Z" fill="white"/>
<path d="M138.3 19.5535C136.152 19.0485 135.051 17.8437 134.036 16.3092C132.9 14.588 130.627 14.6838 129.373 15.9536L127.467 13.8021L116.912 1.84136C116.505 1.40038 115.942 1.13551 115.342 1.10299C114.743 1.07047 114.154 1.27286 113.701 1.66719C113.249 2.06152 112.968 2.61674 112.918 3.21499C112.868 3.81323 113.053 4.40739 113.434 4.87134L115.037 6.74193C116.019 7.88832 114.441 10.4165 114.441 10.4165L110.417 15.2635C110.142 15.4726 109.906 15.7288 109.72 16.0202C108.645 17.7008 107.544 19.0177 105.268 19.5535C105.112 19.5895 104.964 19.656 104.833 19.7493C104.703 19.8425 104.592 19.9607 104.507 20.0969C104.422 20.2332 104.365 20.3848 104.339 20.5432C104.313 20.7016 104.319 20.8635 104.356 21.0197C104.392 21.1759 104.46 21.3233 104.554 21.4534C104.648 21.5835 104.766 21.6937 104.903 21.7778C105.04 21.8618 105.192 21.918 105.35 21.9432C105.509 21.9683 105.671 21.9619 105.827 21.9243C109.021 21.1724 110.571 19.2093 111.773 17.3322C111.805 17.2765 111.852 17.2302 111.908 17.1977C111.963 17.1653 112.027 17.1478 112.091 17.1471C112.169 17.1465 112.246 17.1646 112.316 17.1999C112.385 17.2353 112.445 17.2867 112.491 17.3501C114.296 19.664 117.169 22.327 121.783 22.327C126.265 22.327 129.154 20.2648 131.049 17.7317C131.111 17.6454 131.193 17.5746 131.287 17.5248C131.382 17.475 131.486 17.4474 131.593 17.4443C131.673 17.439 131.754 17.4554 131.826 17.4916C131.898 17.5279 131.959 17.5827 132.003 17.6505C133.184 19.4366 134.735 21.2163 137.742 21.9243C138.056 21.9964 138.385 21.9414 138.658 21.7714C138.932 21.6013 139.126 21.33 139.2 21.0167C139.274 20.7034 139.221 20.3736 139.052 20.0995C138.884 19.8253 138.613 19.629 138.3 19.5535ZM129.902 8.11889C130.979 8.11889 132.011 7.6912 132.773 6.92991C133.534 6.16861 133.962 5.13608 133.962 4.05945C133.962 2.98281 133.534 1.95028 132.773 1.18898C132.011 0.42769 130.979 0 129.902 0C128.826 0 127.793 0.42769 127.032 1.18898C126.271 1.95028 125.843 2.98281 125.843 4.05945C125.843 5.13608 126.271 6.16861 127.032 6.92991C127.793 7.6912 128.826 8.11889 129.902 8.11889Z" fill="white"/>
</svg>
