<svg width="35" height="23" viewBox="0 0 35 23" fill="none" xmlns="http://www.w3.org/2000/svg">
<path d="M33.9774 19.5535C31.8291 19.0485 30.7282 17.8437 29.7133 16.3092C28.5767 14.588 26.3034 14.6838 25.0499 15.9536L23.1435 13.8021L12.589 1.84136C12.1816 1.40038 11.6185 1.13551 11.019 1.10299C10.4196 1.07047 9.83106 1.27286 9.37841 1.66719C8.92575 2.06152 8.6446 2.61674 8.59465 3.21499C8.54469 3.81323 8.72986 4.40739 9.11085 4.87134L10.7135 6.74193C11.6959 7.88832 10.1176 10.4165 10.1176 10.4165L6.09387 15.2635C5.81877 15.4726 5.58291 15.7288 5.39727 16.0202C4.32233 17.7008 3.2214 19.0177 0.944866 19.5535C0.788474 19.5895 0.640733 19.656 0.510135 19.7493C0.379537 19.8425 0.268657 19.9607 0.183869 20.0969C0.09908 20.2332 0.0420549 20.3848 0.0160708 20.5432C-0.00991337 20.7016 -0.004344 20.8635 0.0324587 21.0197C0.0692615 21.1759 0.136572 21.3233 0.230521 21.4534C0.32447 21.5835 0.443205 21.6937 0.579902 21.7778C0.716598 21.8618 0.86856 21.918 1.02705 21.9432C1.18555 21.9683 1.34745 21.9619 1.50345 21.9243C4.69742 21.1724 6.24813 19.2093 7.44972 17.3322C7.48226 17.2765 7.52868 17.2302 7.58446 17.1977C7.64023 17.1653 7.70346 17.1478 7.76798 17.1471C7.84595 17.1465 7.92292 17.1646 7.99243 17.1999C8.06194 17.2353 8.12195 17.2867 8.16743 17.3501C9.97307 19.664 12.8455 22.327 17.4603 22.327C21.9419 22.327 24.8306 20.2648 26.7256 17.7317C26.7883 17.6454 26.8699 17.5746 26.9642 17.5248C27.0585 17.475 27.163 17.4474 27.2696 17.4443C27.3502 17.439 27.4307 17.4554 27.503 17.4916C27.5752 17.5279 27.6364 17.5827 27.6804 17.6505C28.8609 19.4366 30.4116 21.2163 33.4188 21.9243C33.7325 21.9964 34.062 21.9414 34.3352 21.7714C34.6085 21.6013 34.8033 21.33 34.8772 21.0167C34.951 20.7034 34.8978 20.3736 34.7292 20.0995C34.5606 19.8253 34.2903 19.629 33.9774 19.5535ZM25.5792 8.11889C26.6558 8.11889 27.6884 7.6912 28.4497 6.92991C29.211 6.16861 29.6387 5.13608 29.6387 4.05945C29.6387 2.98281 29.211 1.95028 28.4497 1.18898C27.6884 0.42769 26.6558 0 25.5792 0C24.5026 0 23.47 0.42769 22.7087 1.18898C21.9475 1.95028 21.5198 2.98281 21.5198 4.05945C21.5198 5.13608 21.9475 6.16861 22.7087 6.92991C23.47 7.6912 24.5026 8.11889 25.5792 8.11889Z" fill="white"/>
</svg>
