<svg width="30" height="26" viewBox="0 0 30 26" fill="none" xmlns="http://www.w3.org/2000/svg">
<path d="M3.24756 9.74267L5.68323 2.43567H23.5448L25.9805 9.74267M23.5448 17.8616C22.8988 17.8616 22.2793 17.6049 21.8225 17.1482C21.3657 16.6914 21.1091 16.0719 21.1091 15.4259C21.1091 14.7799 21.3657 14.1604 21.8225 13.7036C22.2793 13.2468 22.8988 12.9902 23.5448 12.9902C24.1908 12.9902 24.8103 13.2468 25.2671 13.7036C25.7238 14.1604 25.9805 14.7799 25.9805 15.4259C25.9805 16.0719 25.7238 16.6914 25.2671 17.1482C24.8103 17.6049 24.1908 17.8616 23.5448 17.8616ZM5.68323 17.8616C5.03725 17.8616 4.41772 17.6049 3.96095 17.1482C3.50417 16.6914 3.24756 16.0719 3.24756 15.4259C3.24756 14.7799 3.50417 14.1604 3.96095 13.7036C4.41772 13.2468 5.03725 12.9902 5.68323 12.9902C6.3292 12.9902 6.94873 13.2468 7.4055 13.7036C7.86228 14.1604 8.11889 14.7799 8.11889 15.4259C8.11889 16.0719 7.86228 16.6914 7.4055 17.1482C6.94873 17.6049 6.3292 17.8616 5.68323 17.8616ZM25.8506 1.62378C25.5258 0.681987 24.6165 0 23.5448 0H5.68323C4.61153 0 3.70221 0.681987 3.37746 1.62378L0 11.3664V24.3567C0 24.7873 0.171076 25.2003 0.475594 25.5049C0.780111 25.8094 1.19313 25.9805 1.62378 25.9805H3.24756C3.67821 25.9805 4.09122 25.8094 4.39574 25.5049C4.70026 25.2003 4.87134 24.7873 4.87134 24.3567V22.7329H24.3567V24.3567C24.3567 24.7873 24.5278 25.2003 24.8323 25.5049C25.1368 25.8094 25.5498 25.9805 25.9805 25.9805H27.6042C28.0349 25.9805 28.4479 25.8094 28.7524 25.5049C29.0569 25.2003 29.228 24.7873 29.228 24.3567V11.3664L25.8506 1.62378Z" fill="white"/>
</svg>
