<svg width="69" height="62" viewBox="0 0 69 62" fill="none" xmlns="http://www.w3.org/2000/svg">
<path d="M31.217 26.427C30.4322 25.6422 30.0398 24.6814 30.0398 23.5448C30.0398 22.4081 30.4322 21.4474 31.217 20.6626C32.0019 19.8778 32.9626 19.4853 34.0992 19.4853C35.2359 19.4853 36.1966 19.8778 36.9814 20.6626C37.7663 21.4474 38.1587 22.4081 38.1587 23.5448C38.1587 24.6814 37.7663 25.6422 36.9814 26.427C36.1966 27.2118 35.2359 27.6042 34.0992 27.6042C32.9626 27.6042 32.0019 27.2118 31.217 26.427ZM24.9249 18.4299L21.5149 14.9388C23.1117 13.342 24.986 12.0771 27.1381 11.144C29.2901 10.2109 31.6105 9.74375 34.0992 9.74267C36.5879 9.74159 38.9089 10.2152 41.062 11.1635C43.2151 12.1118 45.089 13.3973 46.6835 15.0199L43.2736 18.4299C42.0828 17.2391 40.7026 16.3054 39.1329 15.6289C37.5633 14.9523 35.8854 14.614 34.0992 14.614C32.3131 14.614 30.6352 14.9523 29.0655 15.6289C27.4959 16.3054 26.1157 17.2391 24.9249 18.4299ZM18.0238 11.5288L14.6139 8.11889C17.1037 5.57497 20.013 3.58584 23.3417 2.15151C26.6704 0.717168 30.2563 0 34.0992 0C37.9422 0 41.528 0.717168 44.8568 2.15151C48.1855 3.58584 51.0948 5.57497 53.5846 8.11889L50.1746 11.5288C48.0908 9.44498 45.6757 7.8147 42.9293 6.63801C40.183 5.46131 37.2396 4.87242 34.0992 4.87134C30.9588 4.87025 28.016 5.45914 25.2707 6.63801C22.5255 7.81687 20.1098 9.44714 18.0238 11.5288Z" fill="white"/>
<path d="M36.9154 42.9613L32.7954 56.8613H30.2154L27.2954 46.3413L24.1954 56.8613L21.6354 56.8813L17.6954 42.9613H20.1154L22.9954 54.2813L26.1154 42.9613H28.6754L31.5754 54.2213L34.4754 42.9613H36.9154ZM38.7558 44.3813C38.3425 44.3813 37.9958 44.2413 37.7158 43.9613C37.4358 43.6813 37.2958 43.3347 37.2958 42.9213C37.2958 42.508 37.4358 42.1613 37.7158 41.8813C37.9958 41.6013 38.3425 41.4613 38.7558 41.4613C39.1558 41.4613 39.4958 41.6013 39.7758 41.8813C40.0558 42.1613 40.1958 42.508 40.1958 42.9213C40.1958 43.3347 40.0558 43.6813 39.7758 43.9613C39.4958 44.2413 39.1558 44.3813 38.7558 44.3813ZM39.8758 45.8413V56.8613H37.5958V45.8413H39.8758ZM46.2893 47.7013H44.2493V56.8613H41.9493V47.7013H40.6493V45.8413H41.9493V45.0613C41.9493 43.7947 42.2826 42.8747 42.9493 42.3013C43.6293 41.7147 44.6893 41.4213 46.1293 41.4213V43.3213C45.4359 43.3213 44.9493 43.4547 44.6693 43.7213C44.3893 43.9747 44.2493 44.4213 44.2493 45.0613V45.8413H46.2893V47.7013ZM48.2699 44.3813C47.8566 44.3813 47.5099 44.2413 47.2299 43.9613C46.9499 43.6813 46.8099 43.3347 46.8099 42.9213C46.8099 42.508 46.9499 42.1613 47.2299 41.8813C47.5099 41.6013 47.8566 41.4613 48.2699 41.4613C48.6699 41.4613 49.0099 41.6013 49.2899 41.8813C49.5699 42.1613 49.7099 42.508 49.7099 42.9213C49.7099 43.3347 49.5699 43.6813 49.2899 43.9613C49.0099 44.2413 48.6699 44.3813 48.2699 44.3813ZM49.3899 45.8413V56.8613H47.1099V45.8413H49.3899Z" fill="white"/>
</svg>
